<?xml version="1.0" standalone="no"?><!DOCTYPE svg PUBLIC "-//W3C//DTD SVG 1.1//EN" "http://www.w3.org/Graphics/SVG/1.1/DTD/svg11.dtd"><svg t="1524460648145" class="icon" style="" viewBox="0 0 1024 1024" version="1.1" xmlns="http://www.w3.org/2000/svg" p-id="4766" xmlns:xlink="http://www.w3.org/1999/xlink" width="64" height="64"><defs><style type="text/css"></style></defs><path d="M512 85.333333c-117.333333 0-213.333333 96-213.333333 213.333334v85.333333h85.333333v-85.333333c0-70.4 57.6-128 128-128s128 57.6 128 128v85.333333h85.333333v-85.333333c0-117.333333-96-213.333333-213.333333-213.333334z" fill="#424242" p-id="4767"></path><path d="M768 938.666667H256c-46.933333 0-85.333333-38.4-85.333333-85.333334V469.333333c0-46.933333 38.4-85.333333 85.333333-85.333333h512c46.933333 0 85.333333 38.4 85.333333 85.333333v384c0 46.933333-38.4 85.333333-85.333333 85.333334z" fill="#FB8C00" p-id="4768"></path><path d="M512 661.333333m-64 0a64 64 0 1 0 128 0 64 64 0 1 0-128 0Z" fill="#C76E00" p-id="4769"></path></svg>