<?xml version="1.0" standalone="no"?><!DOCTYPE svg PUBLIC "-//W3C//DTD SVG 1.1//EN" "http://www.w3.org/Graphics/SVG/1.1/DTD/svg11.dtd"><svg t="1529330935846" class="icon" style="" viewBox="0 0 1024 1024" version="1.1" xmlns="http://www.w3.org/2000/svg" p-id="2991" xmlns:xlink="http://www.w3.org/1999/xlink" width="64" height="64"><defs><style type="text/css"></style></defs><path d="M735.331973 333.275479c0 49.386804-39.963177 89.307002-89.307002 89.307002-49.342802 0-89.307002-39.921221-89.307002-89.307002s39.965224-89.307002 89.307002-89.307002C695.368796 243.968477 735.331973 283.889699 735.331973 333.275479zM958.70846 243.968477l0 536.105001c0 98.642624-79.971379 178.700985-178.615027 178.700985L243.903497 958.774463c-98.642624 0-178.61298-80.057337-178.61298-178.700985L65.290517 243.968477c0-98.730629 79.969333-178.744987 178.61298-178.744987l536.190959 0C878.73708 65.22349 958.70846 145.236825 958.70846 243.968477zM869.401458 288.599977c0-73.994248-60.075237-134.069485-134.069485-134.069485L288.667004 154.530492c-74.082252 0-134.115534 60.075237-134.115534 134.069485l0 357.404016L377.971959 422.583504l203.090465 243.707534 154.269549-154.269549 134.069485 167.532621L869.401458 288.599977z" p-id="2992" fill="#00ba80"></path></svg>