<?xml version="1.0" standalone="no"?><!DOCTYPE svg PUBLIC "-//W3C//DTD SVG 1.1//EN" "http://www.w3.org/Graphics/SVG/1.1/DTD/svg11.dtd"><svg t="1528274725372" class="icon" style="" viewBox="0 0 1024 1024" version="1.1" xmlns="http://www.w3.org/2000/svg" p-id="898" xmlns:xlink="http://www.w3.org/1999/xlink" width="64" height="64"><defs><style type="text/css"></style></defs><path d="M842.666667 864h-119.466667c249.6-285.866667 262.4-469.333333 189.866667-554.666667-74.666667-89.6-217.6-87.466667-330.666667-21.333333h-140.8c-115.2-64-262.4-72.533333-330.666667 21.333333-66.133333 91.733333-59.733333 268.8 189.866667 554.666667H181.333333v64h661.333334v-64z m-456.533334 0C206.933333 674.133333 83.2 443.733333 160 347.733333c51.2-64 157.866667-55.466667 243.2-8.533333-36.266667 155.733333-14.933333 381.866667 32 524.8h-49.066667z m134.4 0h-17.066666c-51.2-125.866667-74.666667-362.666667-38.4-512h93.866666c36.266667 149.333333 10.666667 384-38.4 512z m66.133334 0c49.066667-142.933333 70.4-369.066667 32-524.8 85.333333-46.933333 192-55.466667 243.2 8.533333 74.666667 96-46.933333 326.4-226.133334 514.133334h-49.066666z m-74.666667-640c34.133333 0 64-29.866667 64-64s-27.733333-64-64-64c-34.133333 0-64 27.733333-64 64 0 34.133333 27.733333 64 64 64z" fill="#00ba80" p-id="899"></path></svg>