<?xml version="1.0" standalone="no"?><!DOCTYPE svg PUBLIC "-//W3C//DTD SVG 1.1//EN" "http://www.w3.org/Graphics/SVG/1.1/DTD/svg11.dtd"><svg t="1525520425844" class="icon" style="" viewBox="0 0 1024 1024" version="1.1" xmlns="http://www.w3.org/2000/svg" p-id="11345" xmlns:xlink="http://www.w3.org/1999/xlink" width="64" height="64"><defs><style type="text/css"></style></defs><path d="M892.36 177.22h-761a60 60 0 0 0-60 60v549a60 60 0 0 0 60 60h761a60 60 0 0 0 60-60v-549a60 60 0 0 0-60-60z m-555 490.59a30 30 0 0 1-32.24 29.92c-15.77-1.14-27.76-14.7-27.76-30.51V493.71c0-15.81 12-29.37 27.76-30.51a30 30 0 0 1 32.24 29.92z m205 0a30 30 0 0 1-32.24 29.92c-15.77-1.14-27.76-14.7-27.76-30.51V356.79c0-15.81 12-29.37 27.76-30.51a30 30 0 0 1 32.24 29.92z m205 0a30 30 0 0 1-32.24 29.92c-15.77-1.14-27.76-14.7-27.76-30.51v-242c0-15.81 12-29.37 27.76-30.51a30 30 0 0 1 32.24 29.92z" fill="#ffffff" p-id="11346"></path></svg>