<?xml version="1.0" encoding="UTF-8"?>
<svg width="64px" height="64px" viewBox="0 0 64 64" version="1.1" xmlns="http://www.w3.org/2000/svg" xmlns:xlink="http://www.w3.org/1999/xlink">
    <!-- Generator: Sketch 48.1 (47250) - http://www.bohemiancoding.com/sketch -->
    <title>right_fill</title>
    <desc>Created with Sketch.</desc>
    <defs></defs>
    <g id="Page-1" stroke="none" stroke-width="1" fill="none" fill-rule="evenodd">
        <g id="right_fill">
            <path d="M31.9878562,63.9733965 C14.3288041,63.9733965 0.0129686554,49.6603308 0.0129686554,32.0038584 C0.0129686554,14.3477728 14.3288041,0.0343203404 31.9878562,0.0343203404 C49.6472242,0.0343203404 63.9627438,14.3477585 63.9627438,32.0038584 C63.9627438,49.6602591 49.6472816,63.9733965 31.9878562,63.9733965 Z" id="Path" fill="#00BA80"></path>
            <path d="M49.9337298,22.6243775 L47.6907253,20.428724 C46.4516749,19.2161691 44.4430632,19.2161691 43.2042713,20.428724 L27.5014021,35.7979982 L20.7716852,29.2110231 C19.5326348,27.9984683 17.5240232,27.9984683 16.2852312,29.2110231 L14.0419683,31.4066767 C12.8029179,32.6192315 12.8029179,34.5853717 14.0419683,35.7979982 L23.0146897,44.5799965 C23.0146897,44.5802543 23.0146897,44.5802543 23.0146897,44.5802543 L25.2579526,46.7759079 C26.497003,47.9884627 28.5056147,47.9884627 29.7446651,46.7759079 L49.9336149,27.0155558 C51.1727227,25.8026858 51.1727227,23.8369324 49.9336723,22.624306 L49.9337298,22.6243775 Z" id="Path" fill="#FFFFFF"></path>
        </g>
    </g>
</svg>