<?xml version="1.0" standalone="no"?><!DOCTYPE svg PUBLIC "-//W3C//DTD SVG 1.1//EN" "http://www.w3.org/Graphics/SVG/1.1/DTD/svg11.dtd"><svg t="1527843094549" class="icon" style="" viewBox="0 0 1024 1024" version="1.1" xmlns="http://www.w3.org/2000/svg" p-id="11894" xmlns:xlink="http://www.w3.org/1999/xlink" width="64" height="64"><defs><style type="text/css"></style></defs><path d="M827.076923 992.492308c43.323077 0 78.769231-35.446154 78.769231-78.769231V384c0-43.323077-35.446154-78.769231-78.769231-78.769231h-147.692308c-15.753846 0-29.538462 13.784615-29.538461 29.538462v59.076923c0 15.753846 13.784615 29.538462 29.538461 29.538461h78.769231c15.753846 0 29.538462 13.784615 29.538462 29.538462v391.876923c0 15.753846-13.784615 29.538462-29.538462 29.538462h-492.307692c-15.753846 0-29.538462-13.784615-29.538462-29.538462V452.923077c0-15.753846 13.784615-29.538462 29.538462-29.538462h78.769231c15.753846 0 29.538462-13.784615 29.538461-29.538461v-59.076923c0-15.753846-13.784615-29.538462-29.538461-29.538462H196.923077c-43.323077 0-78.769231 35.446154-78.769231 78.769231v529.723077c0 43.323077 35.446154 78.769231 78.769231 78.769231h630.153846zM571.076923 608.492308V226.461538h116.184615c19.692308 0 29.538462-17.723077 17.723077-27.56923l-177.230769-163.446154c-7.876923-5.907692-19.692308-5.907692-27.569231 0l-177.230769 163.446154c-11.815385 11.815385-1.969231 27.569231 17.723077 27.56923H452.923077v382.03077c0 15.753846 13.784615 31.507692 29.538461 31.507692h59.076924c15.753846 0 29.538462-15.753846 29.538461-31.507692z" p-id="11895" fill="#00ba80"></path></svg>