<?xml version="1.0" encoding="UTF-8"?>
<svg width="64px" height="64px" viewBox="0 0 64 64" version="1.1" xmlns="http://www.w3.org/2000/svg" xmlns:xlink="http://www.w3.org/1999/xlink">
    <!-- Generator: Sketch 48.1 (47250) - http://www.bohemiancoding.com/sketch -->
    <title>wrong_fill</title>
    <desc>Created with Sketch.</desc>
    <defs></defs>
    <g id="Page-1" stroke="none" stroke-width="1" fill="none" fill-rule="evenodd">
        <g id="wrong_fill">
            <path d="M31.9814836,0.026491781 C14.3367181,0.026491781 0.0333301429,14.3458612 0.0333301429,32.0103415 C0.0333301429,49.6749504 14.3367181,63.9941912 31.9814836,63.9941912 C49.626249,63.9941912 63.929637,49.6749646 63.929637,32.0103415 C63.929637,14.3458612 49.626249,0.026491781 31.9814836,0.026491781 Z" id="Path" fill="#F06292"></path>
            <path d="M32.0322063,54.3990377 C29.5682197,54.3990377 27.5706741,52.5281738 27.5706741,50.2199324 C27.5706741,47.9118052 29.5682197,46.0408128 32.0322063,46.0408128 C34.496978,46.0408128 36.4944523,47.9118052 36.4944523,50.2199324 C36.4944524,52.5281881 34.4969781,54.3990377 32.0322063,54.3990377 Z" id="Path" fill="#FFFFFF"></path>
            <path d="M40.0324821,19.5651087 L36.4874714,39.3238223 C36.4874714,39.3457462 36.4944524,39.3660551 36.4944524,39.3878504 C36.4944524,41.6961061 34.4969067,43.5669557 32.0322064,43.5669557 C29.5682198,43.5669557 27.5706741,41.6960918 27.5706741,39.3878504 C27.5706741,39.3660408 27.5769271,39.345689 27.5776551,39.3238223 L24.0318021,19.5651087 L24.0817539,19.5651087 C24.0505179,19.2933751 24.0318021,19.0200838 24.0318021,18.7420761 C24.0318021,14.587896 27.6135165,11.2208471 32.0321493,11.2208471 C36.4507821,11.2208471 40.0324251,14.5878961 40.0324251,18.7420761 C40.0324251,19.0201411 40.0137092,19.2933752 39.9824875,19.5651087 L40.0324821,19.5651087 Z" id="Path" fill="#FFFFFF"></path>
        </g>
    </g>
</svg>